<?xml version="1.0" encoding="UTF-8" standalone="no"?><!DOCTYPE svg PUBLIC "-//W3C//DTD SVG 1.1//EN" "http://www.w3.org/Graphics/SVG/1.1/DTD/svg11.dtd"><svg width="100%" height="100%" viewBox="0 0 356 356" version="1.1" xmlns="http://www.w3.org/2000/svg" xmlns:xlink="http://www.w3.org/1999/xlink" xml:space="preserve" xmlns:serif="http://www.serif.com/" style="fill-rule:evenodd;clip-rule:evenodd;stroke-linejoin:round;stroke-miterlimit:2;"><g id="filled_outline"><rect x="79.333" y="286.111" width="198.444" height="33.333" style="fill:#fff9c4;"/><path d="M277.778,333.333l-2.778,0c-1.524,0 -2.778,-1.254 -2.778,-2.777c0,-1.524 1.254,-2.778 2.778,-2.778l2.778,0c1.524,0 2.778,1.254 2.778,2.778c0,1.523 -1.254,2.777 -2.778,2.777Z" style="fill:#006064;fill-rule:nonzero;"/><path d="M286.111,275l0,-250l-188.889,0c-15.238,0 -27.778,12.539 -27.778,27.778l0,250c0.515,-7.232 3.452,-14.084 8.334,-19.445c11.778,-12.166 32.778,-9.055 40.166,-8.111c29.667,3.556 85.334,3.334 168.167,-0.222Z" style="fill:#ffcc80;fill-rule:nonzero;"/><path d="M283.333,319.444l-186.111,0c-9.143,0 -16.666,-7.523 -16.666,-16.666c0,-9.143 7.523,-16.667 16.666,-16.667l188.889,0l0,-11.111l-188.889,0c-15.238,0 -27.778,12.539 -27.778,27.778c0,15.238 12.54,27.778 27.778,27.778l186.111,0l0,-11.112Z" style="fill:#fff;fill-rule:nonzero;"/><path d="M286.111,22.222l-188.889,0c-16.751,0.031 -30.525,13.805 -30.555,30.556l0,250c0.03,16.751 13.804,30.525 30.555,30.555l186.111,0c1.524,0 2.778,-1.254 2.778,-2.777l0,-11.112c0,-1.523 -1.254,-2.777 -2.778,-2.777l-2.777,0l0,-27.778l5.555,0c1.524,0 2.778,-1.254 2.778,-2.778l0,-261.111c0,-1.524 -1.254,-2.778 -2.778,-2.778Zm-213.889,30.556c0.031,-13.703 11.297,-24.97 25,-25l186.111,0l0,244.444l-186.111,0c-8.118,-0.005 -15.916,3.214 -21.666,8.945c-1.218,1.28 -2.332,2.655 -3.334,4.111l0,-232.5Zm202.778,241.666l-2.778,0c-1.524,0 -2.778,1.254 -2.778,2.778c0,1.524 1.254,2.778 2.778,2.778l2.778,0l0,5.556l-2.778,0c-1.524,0 -2.778,1.253 -2.778,2.777c0,1.524 1.254,2.778 2.778,2.778l2.778,0l0,5.556l-177.778,0c-7.619,0 -13.889,-6.27 -13.889,-13.889c0,-7.619 6.27,-13.889 13.889,-13.889l177.778,0l0,5.555Zm8.333,-11.111l-186.111,0c-10.667,0 -19.444,8.778 -19.444,19.445c0,10.667 8.777,19.444 19.444,19.444l183.334,0l0,5.556l-183.334,0c-13.714,0 -25,-11.286 -25,-25c0,-13.715 11.286,-25 25,-25l186.111,0l0,5.555Z" style="fill:#006064;fill-rule:nonzero;"/><path d="M116.667,300l22.222,0c1.524,0 2.778,-1.254 2.778,-2.778c0,-1.524 -1.254,-2.778 -2.778,-2.778l-22.222,0c-1.524,0 -2.778,1.254 -2.778,2.778c0,1.524 1.254,2.778 2.778,2.778Z" style="fill:#006064;fill-rule:nonzero;"/><path d="M194.444,300l22.223,0c1.524,0 2.777,-1.254 2.777,-2.778c0,-1.524 -1.253,-2.778 -2.777,-2.778l-22.223,0c-1.523,0 -2.777,1.254 -2.777,2.778c0,1.524 1.254,2.778 2.777,2.778Z" style="fill:#006064;fill-rule:nonzero;"/><path d="M233.333,300l22.223,0c1.523,0 2.777,-1.254 2.777,-2.778c0,-1.524 -1.254,-2.778 -2.777,-2.778l-22.223,0c-1.524,0 -2.777,1.254 -2.777,2.778c0,1.524 1.253,2.778 2.777,2.778Z" style="fill:#006064;fill-rule:nonzero;"/><path d="M155.556,300l22.222,0c1.524,0 2.778,-1.254 2.778,-2.778c0,-1.524 -1.254,-2.778 -2.778,-2.778l-22.222,0c-1.524,0 -2.778,1.254 -2.778,2.778c0,1.524 1.254,2.778 2.778,2.778Z" style="fill:#006064;fill-rule:nonzero;"/><path d="M116.667,311.111l22.222,0c1.524,0 2.778,-1.254 2.778,-2.778c0,-1.524 -1.254,-2.777 -2.778,-2.777l-22.222,0c-1.524,0 -2.778,1.253 -2.778,2.777c0,1.524 1.254,2.778 2.778,2.778Z" style="fill:#006064;fill-rule:nonzero;"/><path d="M233.333,311.111l22.223,0c1.523,0 2.777,-1.254 2.777,-2.778c0,-1.524 -1.254,-2.777 -2.777,-2.777l-22.223,0c-1.524,0 -2.777,1.253 -2.777,2.777c0,1.524 1.253,2.778 2.777,2.778Z" style="fill:#006064;fill-rule:nonzero;"/><path d="M194.444,311.111l22.223,0c1.524,0 2.777,-1.254 2.777,-2.778c0,-1.524 -1.253,-2.777 -2.777,-2.777l-22.223,0c-1.523,0 -2.777,1.253 -2.777,2.777c0,1.524 1.254,2.778 2.777,2.778Z" style="fill:#006064;fill-rule:nonzero;"/><path d="M155.556,311.111l22.222,0c1.524,0 2.778,-1.254 2.778,-2.778c0,-1.524 -1.254,-2.777 -2.778,-2.777l-22.222,0c-1.524,0 -2.778,1.253 -2.778,2.777c0,1.524 1.254,2.778 2.778,2.778Z" style="fill:#006064;fill-rule:nonzero;"/><rect x="69.444" y="122.222" width="216.667" height="72.222" style="fill:#fff9c4;"/><path d="M286.111,197.222l-216.667,0c-1.523,0 -2.777,-1.254 -2.777,-2.778l0,-72.222c0,-1.524 1.254,-2.778 2.777,-2.778l216.667,0c1.524,0 2.778,1.254 2.778,2.778l0,72.222c0,1.524 -1.254,2.778 -2.778,2.778Zm-213.889,-5.555l211.111,0l0,-66.667l-211.111,0l0,66.667Z" style="fill:#006064;fill-rule:nonzero;"/><path d="M213.778,84c-0.026,-0.184 -0.026,-0.371 0,-0.556c0.025,-0.147 0.025,-0.297 0,-0.444c0.027,-0.147 0.027,-0.298 0,-0.444l-5.556,-16.667c-0.01,-0.13 -0.01,-0.26 0,-0.389l0,-0.333l-0.333,-0.278l-27.333,0l0,-3.778c0,-1.524 -1.254,-2.778 -2.778,-2.778c-1.524,0 -2.778,1.254 -2.778,2.778l0,2.778l-26.778,0l-0.278,0.333c0.011,0.13 0.011,0.26 0,0.389c-0.01,0.13 0,0 0,0l-5.555,16.667c-0.027,0.147 -0.027,0.297 0,0.444c-0.025,0.147 -0.025,0.298 0,0.445c0.026,0.184 0.026,0.371 0,0.555l0,0.5c0.072,0.16 0.165,0.31 0.278,0.445l0.333,0.389l0.389,0.277l0.555,0.278c0.294,0.053 0.595,0.053 0.889,0l11.111,0c0.294,0.053 0.595,0.053 0.889,0l0.556,-0.278l0.389,-0.277l0.333,-0.389c0.112,-0.135 0.206,-0.285 0.278,-0.445l0,-0.5c-0.026,-0.184 -0.026,-0.371 0,-0.555c0.025,-0.147 0.025,-0.298 0,-0.445c0.027,-0.147 0.027,-0.297 0,-0.444l-4.333,-13l20.944,0l0,26.166l-2.778,0c-1.524,0 -2.778,1.254 -2.778,2.778l-8.333,0c-1.524,0 -2.778,1.254 -2.778,2.778c0,1.524 1.254,2.778 2.778,2.778l33.333,0c1.524,0 2.778,-1.254 2.778,-2.778c0,-1.524 -1.254,-2.778 -2.778,-2.778l-8.333,0c0,-1.524 -1.254,-2.778 -2.778,-2.778l-2.777,0l0,-25l21.166,0l-4.333,13c-0.027,0.147 -0.027,0.298 0,0.445c-0.025,0.147 -0.025,0.297 0,0.444c0.026,0.185 0.026,0.372 0,0.556l0,0.5c0.072,0.16 0.165,0.309 0.278,0.444l0.333,0.389l0.389,0.278l0.555,0.278c0.294,0.053 0.595,0.053 0.889,0l11.111,0c0.294,0.053 0.595,0.053 0.889,0l0.556,-0.278l0.389,-0.278l0.333,-0.389c0.112,-0.135 0.206,-0.284 0.278,-0.444l0.389,-0.389Zm-63.778,-8.556l1.722,5.112l-3.444,0l1.722,-5.112Zm57.278,5.112l-3.445,0l1.723,-5.112l1.722,5.112Z" style="fill:#fff;fill-rule:nonzero;"/><rect x="166.002" y="219.952" width="23.552" height="23.552" style="fill:#fff;fill-rule:nonzero;"/><path d="M152.778,254.343c0,2.633 2.381,4.764 5.416,4.764c0.967,0 1.967,-0.249 2.667,-0.649c0.8,0.483 1.333,0.683 2.165,0.683c0.05,0 0.25,0 0.367,-0.017l0.183,-0.25l0,-1.748c-0.25,0.05 -0.533,0.067 -0.65,0.067c-0.183,0 -0.316,-0.034 -0.483,-0.084c0.65,-0.734 0.966,-1.634 0.966,-2.716c0,-2.736 -2.248,-4.817 -5.299,-4.817c-3.017,0 -5.332,2.098 -5.332,4.767Zm2.215,0.133l0,-0.116c0,-1.568 1.35,-2.719 3.101,-2.719c1.75,0 3.101,1.167 3.101,2.768c0,0.65 -0.2,1.149 -0.584,1.565c-1.184,-0.998 -2.801,-1.614 -4.318,-1.614c-0.5,0 -0.917,0.033 -1.3,0.116Zm0.85,1.732c0.133,-0.017 0.267,-0.017 0.433,-0.017c0.867,0 1.651,0.234 2.535,0.801c-0.184,0.051 -0.367,0.068 -0.617,0.068c-0.967,0 -1.734,-0.268 -2.351,-0.852Z" style="fill:#fff;fill-rule:nonzero;"/><rect x="166.778" y="256.826" width="2.215" height="2.131" style="fill:#fff;fill-rule:nonzero;"/><path d="M173.161,258.957l5.582,0l0,-2.047l-3.367,0l0,-1.536l3.233,0l0,-2.031l-3.233,0l0,-1.569l3.367,0l0,-2.048l-5.582,0l0,9.231Z" style="fill:#fff;fill-rule:nonzero;"/><rect x="182.445" y="256.826" width="2.215" height="2.131" style="fill:#fff;fill-rule:nonzero;"/><path d="M188.828,258.957l2.448,0c1.501,0 2.385,-0.133 3.185,-0.499c1.566,-0.699 2.482,-2.232 2.482,-4.099c0,-1.751 -0.783,-3.201 -2.215,-3.983c-0.767,-0.417 -1.934,-0.65 -3.485,-0.65l-2.415,0l0,9.231Zm2.215,-2.047l0,-5.136l0.133,0c1.084,0 1.684,0.083 2.218,0.334c0.817,0.4 1.334,1.233 1.334,2.251c0,0.95 -0.484,1.8 -1.267,2.184c-0.517,0.267 -1.218,0.367 -2.252,0.367l-0.166,0Z" style="fill:#fff;fill-rule:nonzero;"/><rect x="200.495" y="256.826" width="2.215" height="2.131" style="fill:#fff;fill-rule:nonzero;"/><path d="M103.885,175.57c-1.314,0 -2.612,-0.224 -3.894,-0.673c-1.282,-0.448 -2.388,-1.161 -3.317,-2.139c-0.929,-0.977 -1.594,-2.107 -1.995,-3.389c-0.401,-1.282 -0.601,-2.596 -0.601,-3.942l0,-15.816c0,-1.346 0.2,-2.66 0.601,-3.942c0.401,-1.282 1.066,-2.411 1.995,-3.389c0.929,-0.977 2.035,-1.69 3.317,-2.139c1.282,-0.449 2.58,-0.673 3.894,-0.673c1.538,0 3.02,0.296 4.447,0.889c1.426,0.593 2.596,1.522 3.509,2.788c0.913,1.266 1.482,2.652 1.706,4.159l-5.047,1.057c-0.096,-0.737 -0.345,-1.45 -0.745,-2.139c-0.401,-0.689 -0.954,-1.21 -1.659,-1.562c-0.705,-0.353 -1.442,-0.529 -2.211,-0.529c-0.897,0 -1.739,0.256 -2.524,0.769c-0.785,0.513 -1.33,1.202 -1.634,2.067c-0.305,0.865 -0.457,1.747 -0.457,2.644l0,15.816c0,0.673 0.08,1.338 0.24,1.995c0.161,0.657 0.449,1.266 0.866,1.827c0.416,0.561 0.937,0.977 1.562,1.25c0.625,0.272 1.274,0.408 1.947,0.408c0.769,0 1.506,-0.176 2.211,-0.529c0.705,-0.352 1.258,-0.873 1.659,-1.562c0.4,-0.689 0.649,-1.402 0.745,-2.139l5.047,1.058c-0.224,1.506 -0.793,2.892 -1.706,4.158c-0.913,1.266 -2.083,2.195 -3.509,2.788c-1.427,0.593 -2.909,0.889 -4.447,0.889Z" style="fill:#006064;fill-rule:nonzero;"/><path d="M123.547,175.186l0,-3.558c0,-6.377 2.147,-16.969 6.441,-31.776l5.961,0c4.295,14.807 6.442,25.399 6.442,31.776l0,3.558l-5.192,0l0,-3.558c0,-1.314 -0.08,-2.82 -0.24,-4.518l-7.98,0c-0.16,1.698 -0.241,3.204 -0.241,4.518l0,3.558l-5.191,0Zm6.009,-12.739l6.826,0c-0.673,-4.744 -1.811,-10.512 -3.413,-17.307c-1.603,6.795 -2.74,12.563 -3.413,17.307Z" style="fill:#006064;fill-rule:nonzero;"/><path d="M159.457,175.186l0,-30.671l-7.403,0l0,-4.663l19.998,0l0,4.663l-7.403,0l0,30.671l-5.192,0Z" style="fill:#006064;fill-rule:nonzero;"/><path d="M181.714,175.186l0,-3.558c0,-6.377 2.148,-16.969 6.442,-31.776l5.961,0c4.295,14.807 6.442,25.399 6.442,31.776l0,3.558l-5.192,0l0,-3.558c0,-1.314 -0.08,-2.82 -0.24,-4.518l-7.98,0c-0.161,1.698 -0.241,3.204 -0.241,4.518l0,3.558l-5.192,0Zm6.009,-12.739l6.827,0c-0.673,-4.744 -1.811,-10.512 -3.413,-17.307c-1.603,6.795 -2.741,12.563 -3.414,17.307Z" style="fill:#006064;fill-rule:nonzero;"/><path d="M212.096,175.186l0,-35.334l5.192,0l0,30.671l12.739,0l0,4.663l-17.931,0Z" style="fill:#006064;fill-rule:nonzero;"/><path d="M239.882,175.186l0,-3.558c0,-6.377 2.147,-16.969 6.442,-31.776l5.961,0c4.294,14.807 6.442,25.399 6.442,31.776l0,3.558l-5.192,0l0,-3.558c0,-1.314 -0.08,-2.82 -0.241,-4.518l-7.98,0c-0.16,1.698 -0.24,3.204 -0.24,4.518l0,3.558l-5.192,0Zm6.009,-12.739l6.827,0c-0.673,-4.744 -1.811,-10.512 -3.414,-17.307c-1.602,6.795 -2.74,12.563 -3.413,17.307Z" style="fill:#006064;fill-rule:nonzero;"/></g></svg>