<?xml version="1.0" encoding="UTF-8" standalone="no"?>
<!DOCTYPE svg PUBLIC "-//W3C//DTD SVG 1.1//EN" "http://www.w3.org/Graphics/SVG/1.1/DTD/svg11.dtd">
<svg width="100%" height="100%" viewBox="0 0 356 356" version="1.1" xmlns="http://www.w3.org/2000/svg" xmlns:xlink="http://www.w3.org/1999/xlink" xml:space="preserve" xmlns:serif="http://www.serif.com/" style="fill-rule:evenodd;clip-rule:evenodd;stroke-linejoin:round;stroke-miterlimit:2;">
    <g transform="matrix(5.55556,0,0,5.55556,0,0)">
        <g id="filled_outline">
            <rect x="14.28" y="51.5" width="35.72" height="6" style="fill:rgb(255,249,196);"/>
            <path d="M50,60L49.5,60C49.226,60 49,59.774 49,59.5C49,59.226 49.226,59 49.5,59L50,59C50.274,59 50.5,59.226 50.5,59.5C50.5,59.774 50.274,60 50,60Z" style="fill:rgb(0,96,100);fill-rule:nonzero;"/>
            <path d="M51.5,49.5L51.5,4.5L17.5,4.5C14.757,4.5 12.5,6.757 12.5,9.5L12.5,54.5C12.593,53.198 13.121,51.965 14,51C16.12,48.81 19.9,49.37 21.23,49.54C26.57,50.18 36.59,50.14 51.5,49.5Z" style="fill:rgb(255,204,128);fill-rule:nonzero;"/>
            <path d="M51,57.5L17.5,57.5C15.854,57.5 14.5,56.146 14.5,54.5C14.5,52.854 15.854,51.5 17.5,51.5L51.5,51.5L51.5,49.5L17.5,49.5C14.757,49.5 12.5,51.757 12.5,54.5C12.5,57.243 14.757,59.5 17.5,59.5L51,59.5L51,57.5Z" style="fill:white;fill-rule:nonzero;"/>
            <path d="M51.5,4L17.5,4C14.485,4.005 12.005,6.485 12,9.5L12,54.5C12.005,57.515 14.485,59.995 17.5,60L51,60C51.274,60 51.5,59.774 51.5,59.5L51.5,57.5C51.5,57.226 51.274,57 51,57L50.5,57L50.5,52L51.5,52C51.774,52 52,51.774 52,51.5L52,4.5C52,4.226 51.774,4 51.5,4ZM13,9.5C13.005,7.033 15.033,5.005 17.5,5L51,5L51,49L17.5,49C16.039,48.999 14.635,49.578 13.6,50.61C13.381,50.841 13.18,51.088 13,51.35L13,9.5ZM49.5,53L49,53C48.726,53 48.5,53.226 48.5,53.5C48.5,53.774 48.726,54 49,54L49.5,54L49.5,55L49,55C48.726,55 48.5,55.226 48.5,55.5C48.5,55.774 48.726,56 49,56L49.5,56L49.5,57L17.5,57C16.129,57 15,55.871 15,54.5C15,53.129 16.129,52 17.5,52L49.5,52L49.5,53ZM51,51L17.5,51C15.58,51 14,52.58 14,54.5C14,56.42 15.58,58 17.5,58L50.5,58L50.5,59L17.5,59C15.031,59 13,56.969 13,54.5C13,52.031 15.031,50 17.5,50L51,50L51,51Z" style="fill:rgb(0,96,100);fill-rule:nonzero;"/>
            <path d="M21,54L25,54C25.274,54 25.5,53.774 25.5,53.5C25.5,53.226 25.274,53 25,53L21,53C20.726,53 20.5,53.226 20.5,53.5C20.5,53.774 20.726,54 21,54Z" style="fill:rgb(0,96,100);fill-rule:nonzero;"/>
            <path d="M35,54L39,54C39.274,54 39.5,53.774 39.5,53.5C39.5,53.226 39.274,53 39,53L35,53C34.726,53 34.5,53.226 34.5,53.5C34.5,53.774 34.726,54 35,54Z" style="fill:rgb(0,96,100);fill-rule:nonzero;"/>
            <path d="M42,54L46,54C46.274,54 46.5,53.774 46.5,53.5C46.5,53.226 46.274,53 46,53L42,53C41.726,53 41.5,53.226 41.5,53.5C41.5,53.774 41.726,54 42,54Z" style="fill:rgb(0,96,100);fill-rule:nonzero;"/>
            <path d="M28,54L32,54C32.274,54 32.5,53.774 32.5,53.5C32.5,53.226 32.274,53 32,53L28,53C27.726,53 27.5,53.226 27.5,53.5C27.5,53.774 27.726,54 28,54Z" style="fill:rgb(0,96,100);fill-rule:nonzero;"/>
            <path d="M21,56L25,56C25.274,56 25.5,55.774 25.5,55.5C25.5,55.226 25.274,55 25,55L21,55C20.726,55 20.5,55.226 20.5,55.5C20.5,55.774 20.726,56 21,56Z" style="fill:rgb(0,96,100);fill-rule:nonzero;"/>
            <path d="M42,56L46,56C46.274,56 46.5,55.774 46.5,55.5C46.5,55.226 46.274,55 46,55L42,55C41.726,55 41.5,55.226 41.5,55.5C41.5,55.774 41.726,56 42,56Z" style="fill:rgb(0,96,100);fill-rule:nonzero;"/>
            <path d="M35,56L39,56C39.274,56 39.5,55.774 39.5,55.5C39.5,55.226 39.274,55 39,55L35,55C34.726,55 34.5,55.226 34.5,55.5C34.5,55.774 34.726,56 35,56Z" style="fill:rgb(0,96,100);fill-rule:nonzero;"/>
            <path d="M28,56L32,56C32.274,56 32.5,55.774 32.5,55.5C32.5,55.226 32.274,55 32,55L28,55C27.726,55 27.5,55.226 27.5,55.5C27.5,55.774 27.726,56 28,56Z" style="fill:rgb(0,96,100);fill-rule:nonzero;"/>
            <rect x="12.5" y="22" width="39" height="13" style="fill:rgb(255,249,196);"/>
            <path d="M51.5,35.5L12.5,35.5C12.226,35.5 12,35.274 12,35L12,22C12,21.726 12.226,21.5 12.5,21.5L51.5,21.5C51.774,21.5 52,21.726 52,22L52,35C52,35.274 51.774,35.5 51.5,35.5ZM13,34.5L51,34.5L51,22.5L13,22.5L13,34.5Z" style="fill:rgb(0,96,100);fill-rule:nonzero;"/>
            <path d="M38.48,15.12C38.475,15.087 38.475,15.053 38.48,15.02C38.484,14.994 38.484,14.966 38.48,14.94C38.485,14.914 38.485,14.886 38.48,14.86L37.48,11.86C37.478,11.837 37.478,11.813 37.48,11.79L37.48,11.73L37.42,11.68L32.5,11.68L32.5,11C32.5,10.726 32.274,10.5 32,10.5C31.726,10.5 31.5,10.726 31.5,11L31.5,11.5L26.68,11.5L26.63,11.56C26.632,11.583 26.632,11.607 26.63,11.63C26.628,11.653 26.63,11.63 26.63,11.63L25.63,14.63C25.625,14.656 25.625,14.684 25.63,14.71C25.626,14.736 25.626,14.764 25.63,14.79C25.635,14.823 25.635,14.857 25.63,14.89L25.63,14.98C25.643,15.009 25.66,15.036 25.68,15.06L25.74,15.13L25.81,15.18L25.91,15.23C25.963,15.24 26.017,15.24 26.07,15.23L28.07,15.23C28.123,15.24 28.177,15.24 28.23,15.23L28.33,15.18L28.4,15.13L28.46,15.06C28.48,15.036 28.497,15.009 28.51,14.98L28.51,14.89C28.505,14.857 28.505,14.823 28.51,14.79C28.514,14.764 28.514,14.736 28.51,14.71C28.515,14.684 28.515,14.656 28.51,14.63L27.73,12.29L31.5,12.29L31.5,17L31,17C30.726,17 30.5,17.226 30.5,17.5L29,17.5C28.726,17.5 28.5,17.726 28.5,18C28.5,18.274 28.726,18.5 29,18.5L35,18.5C35.274,18.5 35.5,18.274 35.5,18C35.5,17.726 35.274,17.5 35,17.5L33.5,17.5C33.5,17.226 33.274,17 33,17L32.5,17L32.5,12.5L36.31,12.5L35.53,14.84C35.525,14.866 35.525,14.894 35.53,14.92C35.526,14.946 35.526,14.974 35.53,15C35.535,15.033 35.535,15.067 35.53,15.1L35.53,15.19C35.543,15.219 35.56,15.246 35.58,15.27L35.64,15.34L35.71,15.39L35.81,15.44C35.863,15.45 35.917,15.45 35.97,15.44L37.97,15.44C38.023,15.45 38.077,15.45 38.13,15.44L38.23,15.39L38.3,15.34L38.36,15.27C38.38,15.246 38.397,15.219 38.41,15.19L38.48,15.12ZM27,13.58L27.31,14.5L26.69,14.5L27,13.58ZM37.31,14.5L36.69,14.5L37,13.58L37.31,14.5Z" style="fill:white;fill-rule:nonzero;"/>
            <g transform="matrix(0.549535,0,0,0.549535,19.8257,21.1978)">
                <text x="17.336px" y="41.187px" style="font-family:'TeXGyreAdventor-Regular', 'TeX Gyre Adventor';font-size:12px;fill:white;">∎</text>
            </g>
            <g transform="matrix(0.549535,0,0,0.549535,19.89,23.9791)">
                <path d="M13.848,39.675C13.848,40.537 14.628,41.235 15.622,41.235C15.939,41.235 16.266,41.154 16.496,41.023C16.758,41.181 16.932,41.246 17.205,41.246C17.221,41.246 17.287,41.246 17.325,41.241L17.385,41.159L17.385,40.586C17.303,40.603 17.21,40.608 17.172,40.608C17.112,40.608 17.069,40.597 17.014,40.581C17.227,40.34 17.33,40.045 17.33,39.691C17.33,38.795 16.594,38.113 15.595,38.113C14.606,38.113 13.848,38.801 13.848,39.675ZM14.573,39.718L14.573,39.68C14.573,39.167 15.016,38.79 15.589,38.79C16.163,38.79 16.605,39.172 16.605,39.696C16.605,39.909 16.539,40.073 16.414,40.209C16.026,39.882 15.496,39.68 14.999,39.68C14.836,39.68 14.699,39.691 14.573,39.718ZM14.852,40.285C14.896,40.28 14.939,40.28 14.994,40.28C15.278,40.28 15.535,40.357 15.824,40.543C15.764,40.559 15.704,40.565 15.622,40.565C15.305,40.565 15.054,40.477 14.852,40.285L14.852,40.285Z" style="fill:white;"/>
                <path d="M20.525,41.186L22.353,41.186L22.353,40.515L21.25,40.515L21.25,40.012L22.309,40.012L22.309,39.347L21.25,39.347L21.25,38.833L22.353,38.833L22.353,38.162L20.525,38.162L20.525,41.186Z" style="fill:white;"/>
                <path d="M25.656,41.186L26.458,41.186C26.95,41.186 27.239,41.143 27.501,41.023C28.014,40.794 28.314,40.291 28.314,39.68C28.314,39.106 28.058,38.632 27.589,38.375C27.338,38.239 26.955,38.162 26.447,38.162L25.656,38.162L25.656,41.186ZM26.382,40.515L26.382,38.833L26.425,38.833C26.78,38.833 26.977,38.861 27.152,38.943C27.419,39.074 27.589,39.347 27.589,39.68C27.589,39.991 27.43,40.27 27.174,40.395C27.004,40.483 26.775,40.515 26.436,40.515L26.382,40.515Z" style="fill:white;"/>
                <text x="18.04px" y="41.187px" style="font-family:'TeXGyreAdventor-Bold', 'TeX Gyre Adventor';font-weight:700;font-size:5.459px;fill:white;"><tspan x="18.04px 23.172px 29.084px " y="41.187px 41.187px 41.187px ">...</tspan></text>
            </g>
            <g transform="matrix(1,0,0,1,-2.76722,4.76219)">
                <text x="19.303px" y="26.771px" style="font-family:'Iosevka-Semibold', 'Iosevka', monospace;font-weight:600;font-size:8.653px;fill:rgb(0,96,100);">C<tspan x="24.538px 29.773px 35.009px 40.244px 45.479px " y="26.771px 26.771px 26.771px 26.771px 26.771px ">ATALA</tspan></text>
            </g>
        </g>
    </g>
</svg>
